<svg xmlns="http://www.w3.org/2000/svg" xmlns:xlink="http://www.w3.org/1999/xlink" width="375" viewBox="0 0 375 375" height="375" version="1.0"><defs><clipPath id="a"><path d="M 6 6 L 369 6 L 369 369 L 6 369 Z M 6 6"/></clipPath><clipPath id="b"><path d="M 224.464844 441.078125 L -65.957031 224.554688 L 150.566406 -65.863281 L 440.984375 150.65625 Z M 224.464844 441.078125"/></clipPath><clipPath id="c"><path d="M 224.464844 441.078125 L -65.957031 224.554688 L 150.566406 -65.863281 L 440.984375 150.65625 Z M 224.464844 441.078125"/></clipPath><clipPath id="d"><path d="M 42.304688 79.34375 C 44.078125 76.96875 45.90625 74.636719 47.792969 72.351562 C 49.679688 70.0625 51.621094 67.824219 53.617188 65.632812 C 55.613281 63.441406 57.660156 61.300781 59.761719 59.210938 C 61.863281 57.117188 64.015625 55.082031 66.214844 53.097656 C 68.417969 51.109375 70.664062 49.179688 72.960938 47.304688 C 75.257812 45.429688 77.597656 43.613281 79.984375 41.855469 C 82.371094 40.09375 84.796875 38.394531 87.265625 36.753906 C 89.734375 35.113281 92.242188 33.535156 94.789062 32.015625 C 97.335938 30.5 99.917969 29.042969 102.535156 27.652344 C 105.152344 26.261719 107.800781 24.9375 110.484375 23.675781 C 113.167969 22.414062 115.878906 21.222656 118.621094 20.09375 C 121.363281 18.96875 124.128906 17.90625 126.925781 16.914062 C 129.71875 15.925781 132.535156 15 135.371094 14.148438 C 138.210938 13.296875 141.070312 12.511719 143.945312 11.796875 C 146.824219 11.085938 149.714844 10.445312 152.625 9.871094 C 155.535156 9.300781 158.453125 8.800781 161.386719 8.375 C 164.320312 7.949219 167.261719 7.59375 170.214844 7.308594 C 173.164062 7.027344 176.121094 6.816406 179.082031 6.675781 C 182.042969 6.539062 185.003906 6.472656 187.96875 6.480469 C 190.933594 6.488281 193.894531 6.570312 196.855469 6.722656 C 199.816406 6.875 202.769531 7.101562 205.71875 7.398438 C 208.667969 7.695312 211.609375 8.066406 214.539062 8.507812 C 217.472656 8.949219 220.390625 9.464844 223.296875 10.050781 C 226.203125 10.636719 229.09375 11.292969 231.964844 12.019531 C 234.839844 12.746094 237.691406 13.542969 240.527344 14.414062 C 243.363281 15.28125 246.171875 16.214844 248.960938 17.222656 C 251.75 18.226562 254.511719 19.300781 257.25 20.441406 C 259.984375 21.582031 262.691406 22.792969 265.367188 24.066406 C 268.042969 25.339844 270.6875 26.679688 273.296875 28.082031 C 275.90625 29.488281 278.484375 30.953125 281.019531 32.484375 C 283.558594 34.015625 286.058594 35.605469 288.519531 37.257812 C 290.980469 38.910156 293.398438 40.625 295.777344 42.394531 C 298.152344 44.167969 300.484375 45.996094 302.769531 47.882812 C 305.058594 49.769531 307.296875 51.710938 309.488281 53.707031 C 311.679688 55.703125 313.820312 57.75 315.910156 59.851562 C 318 61.953125 320.039062 64.105469 322.023438 66.308594 C 324.007812 68.507812 325.941406 70.757812 327.8125 73.054688 C 329.6875 75.347656 331.507812 77.691406 333.265625 80.074219 C 335.027344 82.460938 336.726562 84.886719 338.367188 87.355469 C 340.007812 89.824219 341.585938 92.332031 343.105469 94.878906 C 344.621094 97.425781 346.074219 100.007812 347.464844 102.625 C 348.855469 105.242188 350.183594 107.894531 351.445312 110.574219 C 352.703125 113.257812 353.898438 115.972656 355.027344 118.710938 C 356.152344 121.453125 357.210938 124.222656 358.203125 127.015625 C 359.195312 129.808594 360.117188 132.625 360.972656 135.464844 C 361.824219 138.300781 362.609375 141.160156 363.320312 144.039062 C 364.035156 146.914062 364.675781 149.808594 365.246094 152.714844 C 365.820312 155.625 366.316406 158.546875 366.746094 161.480469 C 367.171875 164.414062 367.527344 167.355469 367.8125 170.304688 C 368.09375 173.253906 368.304688 176.210938 368.441406 179.171875 C 368.582031 182.132812 368.644531 185.097656 368.640625 188.058594 C 368.632812 191.023438 368.550781 193.988281 368.398438 196.949219 C 368.246094 199.90625 368.019531 202.863281 367.722656 205.8125 C 367.425781 208.761719 367.054688 211.699219 366.613281 214.632812 C 366.167969 217.5625 365.65625 220.480469 365.070312 223.386719 C 364.484375 226.292969 363.828125 229.183594 363.101562 232.054688 C 362.371094 234.929688 361.574219 237.785156 360.707031 240.617188 C 359.839844 243.453125 358.902344 246.265625 357.898438 249.054688 C 356.890625 251.839844 355.820312 254.601562 354.675781 257.339844 C 353.535156 260.074219 352.328125 262.78125 351.054688 265.457031 C 349.78125 268.132812 348.441406 270.777344 347.039062 273.386719 C 345.632812 276 344.167969 278.574219 342.636719 281.113281 C 341.105469 283.652344 339.515625 286.152344 337.859375 288.609375 C 336.207031 291.070312 334.496094 293.488281 332.722656 295.867188 C 330.953125 298.242188 329.125 300.574219 327.238281 302.863281 C 325.351562 305.148438 323.410156 307.386719 321.414062 309.578125 C 319.417969 311.769531 317.367188 313.910156 315.265625 316 C 313.164062 318.09375 311.015625 320.128906 308.8125 322.117188 C 306.613281 324.101562 304.363281 326.03125 302.066406 327.90625 C 299.769531 329.78125 297.429688 331.597656 295.042969 333.355469 C 292.660156 335.117188 290.234375 336.816406 287.761719 338.457031 C 285.292969 340.097656 282.789062 341.675781 280.242188 343.195312 C 277.695312 344.710938 275.113281 346.167969 272.496094 347.558594 C 269.878906 348.949219 267.226562 350.273438 264.542969 351.535156 C 261.859375 352.796875 259.148438 353.988281 256.40625 355.117188 C 253.667969 356.246094 250.898438 357.304688 248.105469 358.296875 C 245.3125 359.285156 242.496094 360.210938 239.65625 361.0625 C 236.816406 361.917969 233.960938 362.699219 231.082031 363.414062 C 228.207031 364.125 225.3125 364.765625 222.402344 365.339844 C 219.496094 365.910156 216.574219 366.410156 213.640625 366.835938 C 210.707031 367.265625 207.765625 367.621094 204.816406 367.902344 C 201.863281 368.1875 198.910156 368.394531 195.949219 368.535156 C 192.988281 368.671875 190.023438 368.738281 187.058594 368.730469 C 184.09375 368.722656 181.132812 368.640625 178.171875 368.488281 C 175.210938 368.335938 172.257812 368.109375 169.308594 367.8125 C 166.359375 367.515625 163.417969 367.144531 160.488281 366.703125 C 157.558594 366.261719 154.636719 365.746094 151.734375 365.160156 C 148.828125 364.574219 145.9375 363.917969 143.0625 363.191406 C 140.191406 362.464844 137.335938 361.667969 134.5 360.800781 C 131.667969 359.929688 128.855469 358.996094 126.066406 357.988281 C 123.277344 356.984375 120.515625 355.910156 117.78125 354.769531 C 115.046875 353.628906 112.339844 352.417969 109.664062 351.144531 C 106.984375 349.871094 104.34375 348.53125 101.730469 347.128906 C 99.121094 345.726562 96.546875 344.257812 94.007812 342.726562 C 91.46875 341.195312 88.96875 339.605469 86.507812 337.953125 C 84.046875 336.300781 81.628906 334.585938 79.253906 332.816406 C 76.878906 331.042969 74.546875 329.214844 72.257812 327.328125 C 69.972656 325.441406 67.734375 323.5 65.542969 321.503906 C 63.351562 319.507812 61.210938 317.460938 59.117188 315.359375 C 57.027344 313.257812 54.988281 311.105469 53.003906 308.902344 C 51.019531 306.703125 49.089844 304.453125 47.214844 302.15625 C 45.339844 299.863281 43.523438 297.519531 41.761719 295.136719 C 40.003906 292.75 38.304688 290.324219 36.664062 287.855469 C 35.023438 285.386719 33.441406 282.878906 31.925781 280.332031 C 30.40625 277.785156 28.953125 275.203125 27.5625 272.585938 C 26.171875 269.96875 24.847656 267.316406 23.585938 264.636719 C 22.324219 261.953125 21.128906 259.238281 20.003906 256.5 C 18.875 253.757812 17.816406 250.988281 16.824219 248.195312 C 15.832031 245.402344 14.910156 242.585938 14.058594 239.746094 C 13.203125 236.910156 12.421875 234.050781 11.707031 231.175781 C 10.996094 228.296875 10.351562 225.402344 9.78125 222.496094 C 9.210938 219.585938 8.710938 216.664062 8.285156 213.730469 C 7.855469 210.800781 7.5 207.855469 7.21875 204.90625 C 6.933594 201.957031 6.722656 199 6.585938 196.039062 C 6.449219 193.078125 6.382812 190.113281 6.390625 187.152344 C 6.398438 184.1875 6.476562 181.222656 6.628906 178.265625 C 6.785156 175.304688 7.007812 172.347656 7.308594 169.398438 C 7.605469 166.449219 7.976562 163.511719 8.417969 160.578125 C 8.859375 157.648438 9.375 154.730469 9.960938 151.824219 C 10.542969 148.917969 11.203125 146.027344 11.929688 143.15625 C 12.65625 140.28125 13.453125 137.425781 14.320312 134.59375 C 15.1875 131.757812 16.125 128.945312 17.132812 126.160156 C 18.136719 123.371094 19.210938 120.609375 20.351562 117.871094 C 21.492188 115.136719 22.699219 112.429688 23.972656 109.753906 C 25.25 107.078125 26.585938 104.433594 27.992188 101.824219 C 29.394531 99.210938 30.863281 96.636719 32.394531 94.097656 C 33.921875 91.558594 35.515625 89.0625 37.167969 86.601562 C 38.820312 84.140625 40.535156 81.722656 42.304688 79.34375 Z M 42.304688 79.34375"/></clipPath><clipPath id="f"><path d="M 75 75.386719 L 132 75.386719 L 132 133 L 75 133 Z M 75 75.386719"/></clipPath><clipPath id="g"><path d="M 241 242 L 299 242 L 299 299.636719 L 241 299.636719 Z M 241 242"/></clipPath><clipPath id="h"><path d="M 78 75.386719 L 301 75.386719 L 301 298 L 78 298 Z M 78 75.386719"/></clipPath><linearGradient x1="1745.3" gradientTransform="rotate(-53.294 2182.509 5415.43) scale(2.82346)" xmlns:xlink="http://www.w3.org/1999/xlink" y1="244.834" x2="1924.852" gradientUnits="userSpaceOnUse" y2="244.834" xlink:type="simple" xlink:actuate="onLoad" id="e" xlink:show="other"><stop stop-color="#5726A6" offset="0"/><stop stop-color="#5726A6" offset=".125"/><stop stop-color="#5726A6" offset=".141"/><stop stop-color="#5727A7" offset=".145"/><stop stop-color="#5728A7" offset=".148"/><stop stop-color="#572AA8" offset=".152"/><stop stop-color="#572BA9" offset=".156"/><stop stop-color="#572CA9" offset=".16"/><stop stop-color="#572EAA" offset=".164"/><stop stop-color="#572FAB" offset=".168"/><stop stop-color="#5731AC" offset=".172"/><stop stop-color="#5732AC" offset=".176"/><stop stop-color="#5834AD" offset=".18"/><stop stop-color="#5835AE" offset=".184"/><stop stop-color="#5837AF" offset=".188"/><stop stop-color="#5838B0" offset=".191"/><stop stop-color="#583AB0" offset=".195"/><stop stop-color="#583BB1" offset=".199"/><stop stop-color="#583CB2" offset=".203"/><stop stop-color="#583EB3" offset=".207"/><stop stop-color="#583FB3" offset=".211"/><stop stop-color="#5841B4" offset=".215"/><stop stop-color="#5842B5" offset=".219"/><stop stop-color="#5844B6" offset=".223"/><stop stop-color="#5845B6" offset=".227"/><stop stop-color="#5847B7" offset=".23"/><stop stop-color="#5848B8" offset=".234"/><stop stop-color="#584AB9" offset=".238"/><stop stop-color="#594BBA" offset=".242"/><stop stop-color="#594DBA" offset=".246"/><stop stop-color="#594EBB" offset=".25"/><stop stop-color="#594FBC" offset=".254"/><stop stop-color="#5951BD" offset=".258"/><stop stop-color="#5952BD" offset=".262"/><stop stop-color="#5954BE" offset=".266"/><stop stop-color="#5955BF" offset=".27"/><stop stop-color="#5957C0" offset=".273"/><stop stop-color="#5958C0" offset=".277"/><stop stop-color="#595AC1" offset=".281"/><stop stop-color="#595BC2" offset=".285"/><stop stop-color="#595DC3" offset=".289"/><stop stop-color="#595EC3" offset=".293"/><stop stop-color="#595FC4" offset=".297"/><stop stop-color="#5961C5" offset=".301"/><stop stop-color="#5A62C6" offset=".305"/><stop stop-color="#5A64C7" offset=".309"/><stop stop-color="#5A65C7" offset=".313"/><stop stop-color="#5A67C8" offset=".316"/><stop stop-color="#5A68C9" offset=".32"/><stop stop-color="#5A6ACA" offset=".324"/><stop stop-color="#5A6BCA" offset=".328"/><stop stop-color="#5A6DCB" offset=".332"/><stop stop-color="#5A6ECC" offset=".336"/><stop stop-color="#5A6FCD" offset=".34"/><stop stop-color="#5A71CD" offset=".344"/><stop stop-color="#5A72CE" offset=".348"/><stop stop-color="#5A74CF" offset=".352"/><stop stop-color="#5A75D0" offset=".355"/><stop stop-color="#5A77D0" offset=".359"/><stop stop-color="#5A78D1" offset=".363"/><stop stop-color="#5A7AD2" offset=".367"/><stop stop-color="#5B7BD3" offset=".371"/><stop stop-color="#5B7DD4" offset=".375"/><stop stop-color="#5B7ED4" offset=".379"/><stop stop-color="#5B7FD5" offset=".383"/><stop stop-color="#5B81D6" offset=".387"/><stop stop-color="#5B82D7" offset=".391"/><stop stop-color="#5B84D7" offset=".395"/><stop stop-color="#5B85D8" offset=".398"/><stop stop-color="#5B87D9" offset=".402"/><stop stop-color="#5B88DA" offset=".406"/><stop stop-color="#5B8ADA" offset=".41"/><stop stop-color="#5B8BDB" offset=".414"/><stop stop-color="#5B8DDC" offset=".418"/><stop stop-color="#5B8EDD" offset=".422"/><stop stop-color="#5B8FDE" offset=".426"/><stop stop-color="#5B91DE" offset=".43"/><stop stop-color="#5C92DF" offset=".434"/><stop stop-color="#5C94E0" offset=".438"/><stop stop-color="#5C95E1" offset=".441"/><stop stop-color="#5C97E1" offset=".445"/><stop stop-color="#5C98E2" offset=".449"/><stop stop-color="#5C9AE3" offset=".453"/><stop stop-color="#5C9BE4" offset=".457"/><stop stop-color="#5C9DE4" offset=".461"/><stop stop-color="#5C9EE5" offset=".465"/><stop stop-color="#5C9FE6" offset=".469"/><stop stop-color="#5CA1E7" offset=".473"/><stop stop-color="#5CA2E7" offset=".477"/><stop stop-color="#5CA4E8" offset=".48"/><stop stop-color="#5CA5E9" offset=".484"/><stop stop-color="#5CA7EA" offset=".488"/><stop stop-color="#5CA8EB" offset=".492"/><stop stop-color="#5DAAEB" offset=".496"/><stop stop-color="#5DABEC" offset=".5"/><stop stop-color="#5DADED" offset=".504"/><stop stop-color="#5DAEEE" offset=".508"/><stop stop-color="#5DAFEE" offset=".512"/><stop stop-color="#5DB1EF" offset=".516"/><stop stop-color="#5DB2F0" offset=".52"/><stop stop-color="#5DB4F1" offset=".523"/><stop stop-color="#5DB5F1" offset=".527"/><stop stop-color="#5DB7F2" offset=".531"/><stop stop-color="#5DB8F3" offset=".535"/><stop stop-color="#5DBAF4" offset=".539"/><stop stop-color="#5DBBF5" offset=".543"/><stop stop-color="#5DBDF5" offset=".547"/><stop stop-color="#5DBEF6" offset=".551"/><stop stop-color="#5DBFF7" offset=".555"/><stop stop-color="#5DC1F8" offset=".559"/><stop stop-color="#5EC2F8" offset=".563"/><stop stop-color="#5EC4F9" offset=".566"/><stop stop-color="#5EC5FA" offset=".57"/><stop stop-color="#5EC7FB" offset=".574"/><stop stop-color="#5EC8FB" offset=".578"/><stop stop-color="#5ECAFC" offset=".582"/><stop stop-color="#5ECBFD" offset=".586"/><stop stop-color="#5ECDFE" offset=".59"/><stop stop-color="#5ECEFE" offset=".594"/><stop stop-color="#5ECEFF" offset=".602"/><stop stop-color="#5FCEFF" offset=".605"/><stop stop-color="#60CEFF" offset=".609"/><stop stop-color="#61CEFF" offset=".613"/><stop stop-color="#61CDFF" offset=".617"/><stop stop-color="#62CDFF" offset=".621"/><stop stop-color="#63CDFF" offset=".625"/><stop stop-color="#63CCFF" offset=".629"/><stop stop-color="#64CCFF" offset=".633"/><stop stop-color="#64CCFF" offset=".637"/><stop stop-color="#65CBFF" offset=".641"/><stop stop-color="#66CBFF" offset=".645"/><stop stop-color="#66CBFF" offset=".648"/><stop stop-color="#67CAFF" offset=".652"/><stop stop-color="#67CAFF" offset=".656"/><stop stop-color="#68CAFF" offset=".66"/><stop stop-color="#69C9FF" offset=".664"/><stop stop-color="#69C9FF" offset=".668"/><stop stop-color="#6AC9FF" offset=".672"/><stop stop-color="#6AC8FF" offset=".676"/><stop stop-color="#6BC8FF" offset=".68"/><stop stop-color="#6CC8FF" offset=".684"/><stop stop-color="#6CC8FF" offset=".688"/><stop stop-color="#6DC7FF" offset=".691"/><stop stop-color="#6EC7FF" offset=".695"/><stop stop-color="#6EC7FF" offset=".699"/><stop stop-color="#6FC6FF" offset=".703"/><stop stop-color="#6FC6FF" offset=".707"/><stop stop-color="#70C6FF" offset=".711"/><stop stop-color="#71C5FF" offset=".715"/><stop stop-color="#71C5FF" offset=".719"/><stop stop-color="#72C5FF" offset=".723"/><stop stop-color="#72C4FF" offset=".727"/><stop stop-color="#73C4FF" offset=".73"/><stop stop-color="#74C4FF" offset=".734"/><stop stop-color="#74C3FF" offset=".738"/><stop stop-color="#75C3FF" offset=".742"/><stop stop-color="#75C3FF" offset=".746"/><stop stop-color="#76C2FF" offset=".75"/><stop stop-color="#77C2FF" offset=".754"/><stop stop-color="#77C2FF" offset=".758"/><stop stop-color="#78C1FF" offset=".762"/><stop stop-color="#78C1FF" offset=".766"/><stop stop-color="#79C1FF" offset=".77"/><stop stop-color="#7AC0FF" offset=".773"/><stop stop-color="#7AC0FF" offset=".777"/><stop stop-color="#7BC0FF" offset=".781"/><stop stop-color="#7CBFFF" offset=".785"/><stop stop-color="#7CBFFF" offset=".789"/><stop stop-color="#7DBFFF" offset=".793"/><stop stop-color="#7DBEFF" offset=".797"/><stop stop-color="#7EBEFF" offset=".801"/><stop stop-color="#7FBEFF" offset=".805"/><stop stop-color="#7FBDFF" offset=".809"/><stop stop-color="#80BDFF" offset=".813"/><stop stop-color="#80BDFF" offset=".816"/><stop stop-color="#81BCFF" offset=".82"/><stop stop-color="#82BCFF" offset=".824"/><stop stop-color="#82BCFF" offset=".828"/><stop stop-color="#83BCFF" offset=".832"/><stop stop-color="#83BBFF" offset=".836"/><stop stop-color="#84BBFF" offset=".84"/><stop stop-color="#85BBFF" offset=".844"/><stop stop-color="#85BAFF" offset=".848"/><stop stop-color="#86BAFF" offset=".852"/><stop stop-color="#86BAFF" offset=".859"/><stop stop-color="#86BAFF" offset=".875"/><stop stop-color="#86BAFF" offset="1"/></linearGradient></defs><g clip-path="url(#a)"><g clip-path="url(#b)"><g clip-path="url(#c)"><g clip-path="url(#d)"><path fill="url(#e)" d="M -167.210938 239.3125 L 239.222656 542.332031 L 542.242188 135.898438 L 135.804688 -167.121094 Z M -167.210938 239.3125"/></g></g></g></g><g clip-path="url(#f)"><path fill="#0F0246" d="M 79.960938 102.65625 L 102.09375 80.5 C 102.503906 80.105469 102.929688 79.734375 103.375 79.382812 C 103.820312 79.03125 104.28125 78.699219 104.757812 78.394531 C 105.234375 78.085938 105.726562 77.804688 106.230469 77.542969 C 106.734375 77.285156 107.25 77.050781 107.777344 76.84375 C 108.304688 76.632812 108.839844 76.449219 109.386719 76.292969 C 109.929688 76.136719 110.480469 76.003906 111.039062 75.902344 C 111.597656 75.796875 112.15625 75.722656 112.722656 75.671875 C 113.285156 75.625 113.851562 75.601562 114.421875 75.605469 C 114.988281 75.613281 115.550781 75.644531 116.117188 75.707031 C 116.679688 75.765625 117.238281 75.855469 117.792969 75.96875 C 118.351562 76.085938 118.898438 76.226562 119.441406 76.394531 C 119.980469 76.5625 120.511719 76.757812 121.035156 76.976562 C 121.558594 77.195312 122.070312 77.441406 122.570312 77.710938 C 123.066406 77.980469 123.550781 78.273438 124.023438 78.589844 C 124.492188 78.90625 124.949219 79.246094 125.386719 79.605469 C 125.824219 79.96875 126.242188 80.347656 126.644531 80.75 C 127.042969 81.152344 127.425781 81.570312 127.785156 82.007812 C 128.144531 82.445312 128.484375 82.902344 128.800781 83.371094 C 129.117188 83.84375 129.410156 84.328125 129.679688 84.828125 C 129.949219 85.328125 130.191406 85.839844 130.410156 86.363281 C 130.632812 86.886719 130.824219 87.417969 130.992188 87.960938 C 131.160156 88.503906 131.304688 89.050781 131.417969 89.609375 C 131.53125 90.164062 131.621094 90.722656 131.679688 91.289062 C 131.742188 91.851562 131.773438 92.417969 131.78125 92.988281 C 131.785156 93.554688 131.765625 94.121094 131.714844 94.6875 C 131.667969 95.25 131.589844 95.8125 131.488281 96.371094 C 131.382812 96.929688 131.253906 97.480469 131.097656 98.027344 C 130.9375 98.570312 130.753906 99.109375 130.546875 99.636719 C 130.339844 100.164062 130.105469 100.679688 129.84375 101.183594 C 129.585938 101.691406 129.304688 102.179688 128.996094 102.660156 C 128.691406 103.136719 128.363281 103.597656 128.011719 104.042969 C 127.660156 104.488281 127.285156 104.917969 126.894531 105.324219 L 104.761719 127.484375 C 104.351562 127.878906 103.925781 128.25 103.480469 128.601562 C 103.035156 128.953125 102.574219 129.28125 102.097656 129.589844 C 101.617188 129.894531 101.128906 130.179688 100.625 130.4375 C 100.121094 130.699219 99.605469 130.929688 99.078125 131.140625 C 98.550781 131.351562 98.011719 131.53125 97.46875 131.691406 C 96.925781 131.847656 96.371094 131.976562 95.816406 132.082031 C 95.257812 132.183594 94.695312 132.261719 94.132812 132.308594 C 93.566406 132.359375 93 132.382812 92.433594 132.375 C 91.867188 132.371094 91.300781 132.335938 90.738281 132.277344 C 90.175781 132.214844 89.613281 132.128906 89.058594 132.011719 C 88.503906 131.898438 87.957031 131.753906 87.414062 131.585938 C 86.871094 131.417969 86.339844 131.226562 85.816406 131.003906 C 85.296875 130.785156 84.785156 130.539062 84.285156 130.269531 C 83.785156 130 83.300781 129.707031 82.832031 129.390625 C 82.359375 129.074219 81.90625 128.738281 81.46875 128.375 C 81.03125 128.015625 80.609375 127.636719 80.210938 127.234375 C 79.808594 126.832031 79.429688 126.414062 79.066406 125.972656 C 78.707031 125.535156 78.371094 125.082031 78.054688 124.609375 C 77.738281 124.140625 77.445312 123.652344 77.175781 123.152344 C 76.90625 122.652344 76.660156 122.144531 76.441406 121.621094 C 76.222656 121.097656 76.027344 120.5625 75.859375 120.019531 C 75.691406 119.480469 75.550781 118.929688 75.4375 118.375 C 75.320312 117.820312 75.234375 117.257812 75.171875 116.695312 C 75.113281 116.128906 75.078125 115.5625 75.074219 114.996094 C 75.066406 114.429688 75.089844 113.863281 75.136719 113.296875 C 75.1875 112.730469 75.265625 112.167969 75.367188 111.613281 C 75.472656 111.054688 75.601562 110.5 75.757812 109.957031 C 75.914062 109.410156 76.097656 108.875 76.308594 108.347656 C 76.515625 107.820312 76.75 107.300781 77.007812 106.796875 C 77.269531 106.292969 77.550781 105.800781 77.855469 105.324219 C 78.164062 104.847656 78.492188 104.386719 78.84375 103.9375 C 79.195312 103.492188 79.566406 103.066406 79.960938 102.65625 Z M 79.960938 102.65625"/></g><path fill="#0F0246" d="M 81.566406 185.113281 L 185.523438 81.046875 C 185.929688 80.652344 186.359375 80.28125 186.804688 79.929688 C 187.25 79.578125 187.710938 79.246094 188.1875 78.941406 C 188.664062 78.632812 189.152344 78.351562 189.660156 78.089844 C 190.164062 77.832031 190.679688 77.597656 191.207031 77.390625 C 191.734375 77.179688 192.269531 76.996094 192.8125 76.839844 C 193.359375 76.683594 193.910156 76.550781 194.46875 76.449219 C 195.023438 76.34375 195.585938 76.269531 196.152344 76.21875 C 196.714844 76.167969 197.28125 76.148438 197.847656 76.152344 C 198.414062 76.160156 198.980469 76.191406 199.542969 76.253906 C 200.109375 76.3125 200.667969 76.402344 201.222656 76.515625 C 201.777344 76.632812 202.328125 76.773438 202.867188 76.941406 C 203.410156 77.109375 203.941406 77.304688 204.464844 77.523438 C 204.988281 77.742188 205.496094 77.988281 205.996094 78.257812 C 206.496094 78.527344 206.980469 78.820312 207.453125 79.136719 C 207.921875 79.453125 208.375 79.792969 208.8125 80.152344 C 209.253906 80.511719 209.671875 80.894531 210.074219 81.296875 C 210.472656 81.699219 210.855469 82.117188 211.214844 82.554688 C 211.574219 82.992188 211.914062 83.449219 212.230469 83.917969 C 212.546875 84.390625 212.835938 84.875 213.105469 85.375 C 213.375 85.875 213.621094 86.386719 213.839844 86.910156 C 214.058594 87.433594 214.253906 87.964844 214.421875 88.507812 C 214.589844 89.050781 214.730469 89.597656 214.847656 90.15625 C 214.960938 90.710938 215.046875 91.269531 215.109375 91.835938 C 215.167969 92.398438 215.203125 92.964844 215.207031 93.53125 C 215.214844 94.101562 215.191406 94.667969 215.144531 95.234375 C 215.09375 95.796875 215.019531 96.359375 214.914062 96.917969 C 214.8125 97.476562 214.679688 98.027344 214.523438 98.574219 C 214.367188 99.117188 214.183594 99.65625 213.976562 100.183594 C 213.765625 100.710938 213.53125 101.226562 213.273438 101.730469 C 213.015625 102.238281 212.730469 102.726562 212.425781 103.207031 C 212.117188 103.683594 211.789062 104.144531 211.4375 104.589844 C 211.085938 105.035156 210.714844 105.464844 210.324219 105.871094 L 106.367188 209.941406 C 105.964844 210.363281 105.539062 210.761719 105.097656 211.140625 C 104.65625 211.515625 104.195312 211.871094 103.714844 212.203125 C 103.238281 212.535156 102.746094 212.84375 102.238281 213.128906 C 101.726562 213.410156 101.207031 213.667969 100.671875 213.898438 C 100.136719 214.128906 99.59375 214.335938 99.039062 214.511719 C 98.484375 214.6875 97.921875 214.835938 97.355469 214.957031 C 96.785156 215.078125 96.210938 215.171875 95.632812 215.234375 C 95.054688 215.296875 94.472656 215.332031 93.890625 215.339844 C 93.308594 215.34375 92.730469 215.324219 92.148438 215.269531 C 91.570312 215.21875 90.996094 215.136719 90.421875 215.027344 C 89.851562 214.917969 89.285156 214.78125 88.730469 214.617188 C 88.171875 214.449219 87.621094 214.257812 87.082031 214.039062 C 86.542969 213.816406 86.019531 213.570312 85.503906 213.296875 C 84.988281 213.027344 84.492188 212.726562 84.003906 212.40625 C 83.519531 212.082031 83.054688 211.738281 82.601562 211.367188 C 82.152344 211 81.722656 210.609375 81.3125 210.199219 C 80.898438 209.785156 80.507812 209.355469 80.140625 208.902344 C 79.773438 208.453125 79.425781 207.984375 79.105469 207.5 C 78.78125 207.015625 78.484375 206.515625 78.210938 206 C 77.941406 205.484375 77.695312 204.957031 77.472656 204.417969 C 77.253906 203.878906 77.0625 203.328125 76.894531 202.769531 C 76.730469 202.210938 76.59375 201.648438 76.484375 201.074219 C 76.375 200.503906 76.292969 199.925781 76.242188 199.347656 C 76.191406 198.765625 76.167969 198.183594 76.175781 197.601562 C 76.179688 197.019531 76.214844 196.4375 76.277344 195.859375 C 76.34375 195.28125 76.433594 194.707031 76.554688 194.136719 C 76.675781 193.566406 76.824219 193.003906 77 192.449219 C 77.179688 191.894531 77.382812 191.347656 77.613281 190.8125 C 77.84375 190.28125 78.101562 189.757812 78.382812 189.25 C 78.667969 188.738281 78.972656 188.246094 79.304688 187.765625 C 79.636719 187.289062 79.992188 186.828125 80.371094 186.382812 C 80.746094 185.941406 81.144531 185.519531 81.566406 185.113281 Z M 81.566406 185.113281"/><g clip-path="url(#g)"><path fill="#0F0246" d="M 293.75 272.363281 L 271.617188 294.523438 C 271.210938 294.925781 270.785156 295.308594 270.339844 295.671875 C 269.894531 296.035156 269.433594 296.375 268.953125 296.695312 C 268.476562 297.011719 267.984375 297.304688 267.476562 297.574219 C 266.972656 297.84375 266.453125 298.089844 265.921875 298.308594 C 265.390625 298.527344 264.851562 298.71875 264.304688 298.882812 C 263.753906 299.050781 263.199219 299.1875 262.632812 299.300781 C 262.070312 299.410156 261.503906 299.496094 260.933594 299.550781 C 260.363281 299.609375 259.789062 299.636719 259.214844 299.636719 C 258.644531 299.636719 258.070312 299.609375 257.5 299.550781 C 256.929688 299.496094 256.363281 299.410156 255.800781 299.300781 C 255.234375 299.1875 254.679688 299.050781 254.128906 298.882812 C 253.582031 298.71875 253.042969 298.527344 252.511719 298.308594 C 251.980469 298.089844 251.460938 297.84375 250.957031 297.574219 C 250.449219 297.304688 249.957031 297.011719 249.480469 296.695312 C 249 296.375 248.539062 296.035156 248.09375 295.671875 C 247.648438 295.308594 247.222656 294.925781 246.816406 294.523438 C 246.410156 294.113281 246.023438 293.691406 245.660156 293.246094 C 245.296875 292.800781 244.957031 292.339844 244.636719 291.859375 C 244.316406 291.382812 244.023438 290.890625 243.75 290.382812 C 243.480469 289.875 243.234375 289.355469 243.015625 288.824219 C 242.796875 288.296875 242.601562 287.753906 242.4375 287.203125 C 242.269531 286.652344 242.128906 286.097656 242.019531 285.53125 C 241.90625 284.96875 241.824219 284.402344 241.765625 283.828125 C 241.710938 283.257812 241.683594 282.683594 241.683594 282.109375 C 241.683594 281.535156 241.710938 280.960938 241.765625 280.386719 C 241.824219 279.816406 241.90625 279.246094 242.019531 278.683594 C 242.128906 278.121094 242.269531 277.5625 242.4375 277.011719 C 242.601562 276.460938 242.796875 275.921875 243.015625 275.390625 C 243.234375 274.859375 243.480469 274.339844 243.75 273.832031 C 244.023438 273.324219 244.316406 272.832031 244.636719 272.355469 C 244.957031 271.878906 245.296875 271.414062 245.660156 270.972656 C 246.023438 270.527344 246.410156 270.101562 246.816406 269.695312 L 268.949219 247.535156 C 269.359375 247.144531 269.785156 246.769531 270.230469 246.417969 C 270.675781 246.066406 271.136719 245.738281 271.613281 245.429688 C 272.09375 245.125 272.582031 244.839844 273.085938 244.582031 C 273.589844 244.324219 274.105469 244.089844 274.632812 243.878906 C 275.160156 243.671875 275.695312 243.488281 276.242188 243.332031 C 276.785156 243.171875 277.339844 243.042969 277.894531 242.9375 C 278.453125 242.835938 279.015625 242.757812 279.578125 242.710938 C 280.144531 242.660156 280.710938 242.640625 281.277344 242.644531 C 281.84375 242.652344 282.410156 242.683594 282.972656 242.746094 C 283.535156 242.804688 284.097656 242.894531 284.652344 243.007812 C 285.207031 243.125 285.753906 243.265625 286.296875 243.433594 C 286.839844 243.601562 287.371094 243.796875 287.894531 244.015625 C 288.414062 244.234375 288.925781 244.480469 289.425781 244.75 C 289.925781 245.019531 290.410156 245.3125 290.878906 245.628906 C 291.351562 245.945312 291.804688 246.285156 292.242188 246.644531 C 292.679688 247.003906 293.101562 247.386719 293.5 247.785156 C 293.902344 248.1875 294.28125 248.609375 294.640625 249.046875 C 295.003906 249.484375 295.339844 249.941406 295.65625 250.410156 C 295.972656 250.882812 296.265625 251.367188 296.535156 251.867188 C 296.804688 252.367188 297.050781 252.878906 297.269531 253.402344 C 297.488281 253.925781 297.683594 254.457031 297.851562 255 C 298.019531 255.542969 298.160156 256.089844 298.273438 256.644531 C 298.390625 257.203125 298.476562 257.761719 298.539062 258.328125 C 298.597656 258.890625 298.632812 259.457031 298.636719 260.023438 C 298.644531 260.59375 298.621094 261.160156 298.570312 261.722656 C 298.523438 262.289062 298.445312 262.851562 298.34375 263.410156 C 298.238281 263.96875 298.109375 264.519531 297.953125 265.0625 C 297.796875 265.609375 297.613281 266.144531 297.402344 266.675781 C 297.195312 267.203125 296.960938 267.71875 296.703125 268.222656 C 296.441406 268.726562 296.160156 269.21875 295.855469 269.695312 C 295.546875 270.175781 295.21875 270.636719 294.867188 271.082031 C 294.515625 271.527344 294.144531 271.953125 293.75 272.363281 Z M 293.75 272.363281"/></g><path fill="#0F0246" d="M 294.265625 189.90625 L 190.308594 294.070312 C 189.898438 294.464844 189.472656 294.835938 189.027344 295.1875 C 188.582031 295.539062 188.121094 295.871094 187.644531 296.175781 C 187.167969 296.484375 186.675781 296.765625 186.171875 297.027344 C 185.667969 297.285156 185.152344 297.519531 184.625 297.726562 C 184.097656 297.9375 183.5625 298.121094 183.015625 298.277344 C 182.472656 298.433594 181.921875 298.566406 181.363281 298.667969 C 180.804688 298.773438 180.246094 298.847656 179.679688 298.898438 C 179.117188 298.949219 178.550781 298.96875 177.984375 298.964844 C 177.414062 298.957031 176.851562 298.925781 176.285156 298.863281 C 175.722656 298.804688 175.164062 298.714844 174.609375 298.601562 C 174.054688 298.484375 173.503906 298.34375 172.960938 298.175781 C 172.421875 298.007812 171.890625 297.8125 171.367188 297.59375 C 170.84375 297.375 170.332031 297.128906 169.832031 296.859375 C 169.335938 296.589844 168.851562 296.296875 168.378906 295.980469 C 167.910156 295.664062 167.453125 295.324219 167.015625 294.964844 C 166.578125 294.605469 166.160156 294.222656 165.757812 293.820312 C 165.359375 293.417969 164.976562 293 164.617188 292.5625 C 164.257812 292.125 163.917969 291.667969 163.601562 291.199219 C 163.285156 290.726562 162.992188 290.242188 162.722656 289.742188 C 162.453125 289.242188 162.210938 288.730469 161.992188 288.207031 C 161.769531 287.683594 161.578125 287.152344 161.410156 286.609375 C 161.242188 286.066406 161.101562 285.519531 160.984375 284.960938 C 160.871094 284.40625 160.78125 283.847656 160.722656 283.28125 C 160.660156 282.71875 160.628906 282.152344 160.621094 281.582031 C 160.617188 281.015625 160.636719 280.449219 160.6875 279.882812 C 160.734375 279.320312 160.8125 278.757812 160.914062 278.199219 C 161.019531 277.640625 161.148438 277.089844 161.308594 276.542969 C 161.464844 276 161.648438 275.460938 161.855469 274.933594 C 162.066406 274.40625 162.296875 273.890625 162.558594 273.386719 C 162.816406 272.878906 163.097656 272.390625 163.40625 271.910156 C 163.710938 271.433594 164.042969 270.972656 164.390625 270.527344 C 164.742188 270.082031 165.117188 269.652344 165.507812 269.246094 L 269.464844 165.078125 C 269.875 164.6875 270.300781 164.3125 270.746094 163.960938 C 271.191406 163.609375 271.652344 163.28125 272.128906 162.972656 C 272.605469 162.667969 273.097656 162.382812 273.601562 162.125 C 274.105469 161.867188 274.621094 161.632812 275.148438 161.421875 C 275.675781 161.214844 276.210938 161.03125 276.757812 160.871094 C 277.300781 160.714844 277.851562 160.585938 278.410156 160.480469 C 278.96875 160.378906 279.527344 160.300781 280.09375 160.253906 C 280.65625 160.203125 281.222656 160.179688 281.789062 160.1875 C 282.359375 160.191406 282.921875 160.226562 283.488281 160.285156 C 284.050781 160.347656 284.609375 160.433594 285.164062 160.550781 C 285.71875 160.664062 286.269531 160.808594 286.808594 160.976562 C 287.351562 161.144531 287.882812 161.335938 288.40625 161.558594 C 288.929688 161.777344 289.441406 162.023438 289.941406 162.292969 C 290.4375 162.5625 290.921875 162.855469 291.394531 163.171875 C 291.863281 163.488281 292.320312 163.824219 292.757812 164.1875 C 293.195312 164.546875 293.613281 164.929688 294.015625 165.328125 C 294.414062 165.730469 294.796875 166.152344 295.15625 166.589844 C 295.515625 167.027344 295.855469 167.480469 296.171875 167.953125 C 296.488281 168.425781 296.78125 168.910156 297.050781 169.410156 C 297.320312 169.910156 297.5625 170.421875 297.78125 170.945312 C 298.003906 171.464844 298.195312 172 298.363281 172.542969 C 298.53125 173.082031 298.671875 173.632812 298.789062 174.1875 C 298.902344 174.746094 298.992188 175.304688 299.050781 175.867188 C 299.113281 176.433594 299.144531 177 299.152344 177.566406 C 299.15625 178.132812 299.136719 178.699219 299.085938 179.265625 C 299.039062 179.832031 298.960938 180.394531 298.855469 180.953125 C 298.753906 181.507812 298.625 182.0625 298.464844 182.605469 C 298.308594 183.152344 298.125 183.6875 297.917969 184.214844 C 297.707031 184.742188 297.476562 185.261719 297.214844 185.765625 C 296.957031 186.269531 296.675781 186.761719 296.367188 187.238281 C 296.0625 187.714844 295.730469 188.179688 295.382812 188.625 C 295.03125 189.070312 294.65625 189.496094 294.265625 189.90625 Z M 294.265625 189.90625"/><g clip-path="url(#h)"><path fill="#0F0246" d="M 299.726562 96.0625 L 299.726562 123.625 C 299.726562 124.535156 299.652344 125.441406 299.503906 126.339844 C 299.355469 127.238281 299.136719 128.121094 298.84375 128.984375 C 298.550781 129.84375 298.1875 130.675781 297.757812 131.480469 C 297.324219 132.28125 296.832031 133.046875 296.277344 133.765625 C 295.71875 134.488281 295.109375 135.15625 294.441406 135.777344 C 293.773438 136.398438 293.0625 136.960938 292.300781 137.460938 C 291.542969 137.964844 290.746094 138.402344 289.914062 138.769531 C 289.082031 139.140625 288.226562 139.441406 287.347656 139.671875 C 286.464844 139.902344 285.570312 140.054688 284.664062 140.136719 C 283.757812 140.21875 282.851562 140.226562 281.945312 140.160156 C 281.035156 140.089844 280.140625 139.949219 279.257812 139.730469 C 278.371094 139.515625 277.511719 139.226562 276.675781 138.871094 C 275.839844 138.511719 275.035156 138.085938 274.269531 137.597656 C 273.503906 137.105469 272.78125 136.554688 272.105469 135.945312 C 271.429688 135.335938 270.808594 134.671875 270.242188 133.960938 C 269.671875 133.246094 269.167969 132.492188 268.726562 131.695312 L 107.78125 292.558594 C 107.371094 292.953125 106.945312 293.324219 106.5 293.675781 C 106.054688 294.027344 105.59375 294.359375 105.117188 294.664062 C 104.636719 294.972656 104.148438 295.253906 103.644531 295.515625 C 103.140625 295.773438 102.625 296.007812 102.097656 296.214844 C 101.570312 296.425781 101.035156 296.609375 100.488281 296.765625 C 99.945312 296.921875 99.390625 297.054688 98.835938 297.15625 C 98.277344 297.261719 97.714844 297.335938 97.152344 297.386719 C 96.585938 297.4375 96.019531 297.457031 95.453125 297.453125 C 94.886719 297.445312 94.320312 297.414062 93.757812 297.351562 C 93.195312 297.292969 92.632812 297.203125 92.078125 297.089844 C 91.523438 296.972656 90.976562 296.832031 90.433594 296.664062 C 89.890625 296.496094 89.359375 296.300781 88.835938 296.082031 C 88.316406 295.863281 87.804688 295.617188 87.304688 295.347656 C 86.804688 295.078125 86.320312 294.785156 85.851562 294.46875 C 85.378906 294.152344 84.925781 293.8125 84.488281 293.453125 C 84.050781 293.09375 83.628906 292.710938 83.230469 292.308594 C 82.828125 291.90625 82.449219 291.488281 82.089844 291.050781 C 81.726562 290.613281 81.390625 290.15625 81.074219 289.6875 C 80.757812 289.214844 80.464844 288.730469 80.195312 288.230469 C 79.925781 287.730469 79.679688 287.21875 79.460938 286.695312 C 79.242188 286.171875 79.046875 285.640625 78.878906 285.097656 C 78.710938 284.554688 78.570312 284.007812 78.457031 283.449219 C 78.339844 282.894531 78.253906 282.335938 78.191406 281.769531 C 78.132812 281.207031 78.097656 280.640625 78.09375 280.074219 C 78.085938 279.503906 78.109375 278.9375 78.160156 278.371094 C 78.207031 277.808594 78.285156 277.246094 78.386719 276.6875 C 78.492188 276.128906 78.621094 275.578125 78.777344 275.03125 C 78.933594 274.488281 79.117188 273.949219 79.328125 273.421875 C 79.535156 272.894531 79.769531 272.378906 80.027344 271.875 C 80.289062 271.367188 80.570312 270.878906 80.875 270.398438 C 81.183594 269.921875 81.511719 269.460938 81.863281 269.015625 C 82.214844 268.570312 82.585938 268.140625 82.980469 267.734375 L 243.089844 107.546875 C 242.210938 107.179688 241.367188 106.746094 240.5625 106.234375 C 239.757812 105.726562 239 105.148438 238.296875 104.507812 C 237.589844 103.871094 236.945312 103.171875 236.359375 102.421875 C 235.773438 101.667969 235.253906 100.871094 234.808594 100.03125 C 234.359375 99.191406 233.984375 98.316406 233.6875 97.410156 C 233.390625 96.503906 233.171875 95.582031 233.035156 94.636719 C 232.898438 93.695312 232.839844 92.746094 232.867188 91.792969 C 232.890625 90.839844 233 89.894531 233.1875 88.960938 C 233.375 88.027344 233.644531 87.113281 233.988281 86.226562 C 234.335938 85.335938 234.753906 84.484375 235.246094 83.667969 C 235.738281 82.851562 236.296875 82.085938 236.921875 81.367188 C 237.546875 80.644531 238.230469 79.984375 238.96875 79.382812 C 239.707031 78.78125 240.492188 78.25 241.324219 77.785156 C 242.15625 77.316406 243.019531 76.925781 243.921875 76.609375 C 244.820312 76.292969 245.738281 76.058594 246.675781 75.902344 C 247.617188 75.742188 248.5625 75.667969 249.515625 75.675781 L 280.035156 75.675781 C 280.714844 75.574219 281.402344 75.515625 282.089844 75.496094 C 282.78125 75.476562 283.46875 75.5 284.15625 75.5625 C 284.84375 75.625 285.523438 75.730469 286.195312 75.875 C 286.871094 76.019531 287.535156 76.199219 288.1875 76.421875 C 288.839844 76.644531 289.476562 76.90625 290.101562 77.207031 C 290.722656 77.503906 291.324219 77.835938 291.90625 78.207031 C 292.488281 78.578125 293.046875 78.980469 293.582031 79.417969 C 294.117188 79.851562 294.621094 80.320312 295.101562 80.816406 C 295.582031 81.3125 296.03125 81.835938 296.445312 82.382812 C 296.863281 82.933594 297.246094 83.503906 297.597656 84.101562 C 297.945312 84.695312 298.261719 85.308594 298.539062 85.941406 C 298.8125 86.574219 299.054688 87.21875 299.253906 87.878906 C 299.453125 88.542969 299.613281 89.210938 299.734375 89.890625 C 299.855469 90.570312 299.9375 91.253906 299.976562 91.945312 C 300.015625 92.632812 300.015625 93.324219 299.972656 94.011719 C 299.929688 94.699219 299.847656 95.382812 299.726562 96.0625 Z M 299.726562 96.0625"/></g></svg>