<svg xmlns="http://www.w3.org/2000/svg" xmlns:xlink="http://www.w3.org/1999/xlink" width="375" viewBox="0 0 375 375" height="375" version="1.0"><defs><clipPath id="b"><path d="M 140 95.125 L 325.589844 95.125 L 325.589844 279.625 L 140 279.625 Z M 140 95.125"/></clipPath><clipPath id="c"><path d="M 49.589844 95.125 L 235 95.125 L 235 279.625 L 49.589844 279.625 Z M 49.589844 95.125"/></clipPath><clipPath id="f"><path d="M 0.878906 0.0390625 L 94.960938 0.0390625 L 94.960938 160.839844 L 0.878906 160.839844 Z M 0.878906 0.0390625"/></clipPath><clipPath id="e"><path d="M0 0H95V161H0z"/></clipPath><filter x="0%" y="0%" width="100%" xmlns:xlink="http://www.w3.org/1999/xlink" xlink:type="simple" xlink:actuate="onLoad" height="100%" id="a" xlink:show="other"><feColorMatrix values="0 0 0 0 1 0 0 0 0 1 0 0 0 0 1 0 0 0 1 0" color-interpolation-filters="sRGB"/></filter><mask id="d"><g filter="url(#a)"><path fill-opacity=".498" d="M-37.5 -37.5H412.5V412.5H-37.5z"/></g></mask></defs><path fill="#001B32" d="M 187.5 0 C 84.113281 0 0 84.113281 0 187.5 C 0 290.886719 84.113281 375 187.5 375 C 290.886719 375 375 290.886719 375 187.5 C 375 84.113281 290.886719 0 187.5 0 Z M 187.5 0"/><g clip-path="url(#b)"><path fill="#533192" d="M 325.257812 187.375 C 325.257812 188.878906 325.222656 190.382812 325.148438 191.886719 C 325.074219 193.390625 324.960938 194.894531 324.816406 196.390625 C 324.667969 197.890625 324.484375 199.382812 324.261719 200.871094 C 324.039062 202.359375 323.78125 203.84375 323.488281 205.320312 C 323.195312 206.796875 322.863281 208.265625 322.496094 209.726562 C 322.128906 211.1875 321.726562 212.636719 321.289062 214.078125 C 320.851562 215.519531 320.378906 216.945312 319.871094 218.363281 C 319.363281 219.78125 318.820312 221.1875 318.242188 222.578125 C 317.664062 223.96875 317.054688 225.34375 316.410156 226.703125 C 315.765625 228.066406 315.085938 229.410156 314.375 230.738281 C 313.664062 232.066406 312.921875 233.375 312.144531 234.667969 C 311.371094 235.957031 310.5625 237.230469 309.726562 238.480469 C 308.886719 239.730469 308.019531 240.960938 307.121094 242.171875 C 306.222656 243.382812 305.292969 244.566406 304.335938 245.730469 C 303.378906 246.894531 302.394531 248.035156 301.382812 249.148438 C 300.367188 250.265625 299.328125 251.355469 298.261719 252.421875 C 297.195312 253.484375 296.101562 254.523438 294.984375 255.535156 C 293.867188 256.542969 292.726562 257.527344 291.558594 258.484375 C 290.394531 259.4375 289.203125 260.363281 287.992188 261.261719 C 286.78125 262.15625 285.546875 263.023438 284.292969 263.859375 C 283.039062 264.695312 281.765625 265.5 280.472656 266.277344 C 279.179688 267.050781 277.867188 267.792969 276.535156 268.5 C 275.203125 269.210938 273.859375 269.886719 272.496094 270.53125 C 271.128906 271.175781 269.753906 271.785156 268.359375 272.359375 C 266.964844 272.9375 265.558594 273.480469 264.136719 273.984375 C 262.71875 274.492188 261.285156 274.964844 259.839844 275.402344 C 258.398438 275.839844 256.945312 276.242188 255.480469 276.605469 C 254.019531 276.972656 252.546875 277.300781 251.066406 277.59375 C 249.585938 277.890625 248.101562 278.148438 246.609375 278.367188 C 245.117188 278.589844 243.621094 278.773438 242.121094 278.921875 C 240.617188 279.066406 239.113281 279.179688 237.609375 279.253906 C 236.101562 279.328125 234.59375 279.363281 233.085938 279.363281 C 231.578125 279.363281 230.070312 279.328125 228.5625 279.253906 C 227.054688 279.179688 225.550781 279.066406 224.050781 278.921875 C 222.550781 278.773438 221.050781 278.589844 219.558594 278.367188 C 218.066406 278.148438 216.582031 277.890625 215.101562 277.59375 C 213.625 277.300781 212.152344 276.972656 210.6875 276.605469 C 209.226562 276.242188 207.773438 275.839844 206.328125 275.402344 C 204.882812 274.964844 203.453125 274.492188 202.03125 273.984375 C 200.613281 273.480469 199.203125 272.9375 197.8125 272.359375 C 196.417969 271.785156 195.039062 271.175781 193.675781 270.53125 C 192.3125 269.886719 190.964844 269.210938 189.632812 268.5 C 188.304688 267.792969 186.992188 267.050781 185.699219 266.277344 C 184.402344 265.5 183.128906 264.695312 181.875 263.859375 C 180.621094 263.023438 179.386719 262.15625 178.175781 261.261719 C 176.964844 260.363281 175.777344 259.4375 174.609375 258.484375 C 173.445312 257.527344 172.300781 256.542969 171.183594 255.535156 C 170.066406 254.523438 168.976562 253.484375 167.90625 252.421875 C 166.839844 251.355469 165.800781 250.265625 164.789062 249.148438 C 163.777344 248.035156 162.789062 246.894531 161.832031 245.730469 C 160.875 244.566406 159.949219 243.382812 159.050781 242.171875 C 158.152344 240.960938 157.28125 239.730469 156.445312 238.480469 C 155.605469 237.230469 154.800781 235.957031 154.023438 234.667969 C 153.25 233.375 152.503906 232.066406 151.792969 230.738281 C 151.082031 229.410156 150.40625 228.066406 149.761719 226.703125 C 149.117188 225.34375 148.503906 223.96875 147.925781 222.578125 C 147.351562 221.1875 146.808594 219.78125 146.300781 218.363281 C 145.789062 216.945312 145.316406 215.519531 144.878906 214.078125 C 144.441406 212.636719 144.039062 211.1875 143.671875 209.726562 C 143.308594 208.265625 142.976562 206.796875 142.683594 205.320312 C 142.386719 203.84375 142.128906 202.359375 141.910156 200.871094 C 141.6875 199.382812 141.503906 197.890625 141.355469 196.390625 C 141.207031 194.894531 141.097656 193.390625 141.023438 191.886719 C 140.949219 190.382812 140.910156 188.878906 140.910156 187.375 C 140.910156 185.867188 140.949219 184.363281 141.023438 182.859375 C 141.097656 181.355469 141.207031 179.855469 141.355469 178.359375 C 141.503906 176.859375 141.6875 175.367188 141.910156 173.878906 C 142.128906 172.386719 142.386719 170.90625 142.683594 169.429688 C 142.976562 167.953125 143.308594 166.484375 143.671875 165.023438 C 144.039062 163.5625 144.441406 162.113281 144.878906 160.671875 C 145.316406 159.230469 145.789062 157.800781 146.300781 156.382812 C 146.808594 154.96875 147.351562 153.5625 147.925781 152.171875 C 148.503906 150.78125 149.117188 149.40625 149.761719 148.042969 C 150.40625 146.683594 151.082031 145.339844 151.792969 144.011719 C 152.503906 142.683594 153.25 141.375 154.023438 140.082031 C 154.800781 138.792969 155.605469 137.519531 156.445312 136.269531 C 157.28125 135.015625 158.152344 133.785156 159.050781 132.578125 C 159.949219 131.367188 160.875 130.179688 161.832031 129.015625 C 162.789062 127.855469 163.777344 126.714844 164.789062 125.597656 C 165.800781 124.484375 166.839844 123.394531 167.90625 122.328125 C 168.976562 121.265625 170.066406 120.226562 171.183594 119.214844 C 172.300781 118.203125 173.445312 117.222656 174.609375 116.265625 C 175.777344 115.3125 176.964844 114.386719 178.175781 113.488281 C 179.386719 112.589844 180.621094 111.726562 181.875 110.890625 C 183.128906 110.050781 184.402344 109.246094 185.699219 108.472656 C 186.992188 107.699219 188.304688 106.957031 189.632812 106.246094 C 190.964844 105.539062 192.3125 104.863281 193.675781 104.21875 C 195.039062 103.574219 196.417969 102.964844 197.8125 102.386719 C 199.203125 101.8125 200.613281 101.269531 202.03125 100.761719 C 203.453125 100.257812 204.882812 99.785156 206.328125 99.347656 C 207.773438 98.910156 209.226562 98.507812 210.6875 98.144531 C 212.152344 97.777344 213.625 97.445312 215.101562 97.152344 C 216.582031 96.859375 218.066406 96.601562 219.558594 96.382812 C 221.050781 96.160156 222.550781 95.976562 224.050781 95.828125 C 225.550781 95.679688 227.054688 95.570312 228.5625 95.496094 C 230.070312 95.421875 231.578125 95.386719 233.085938 95.386719 C 234.59375 95.386719 236.101562 95.421875 237.609375 95.496094 C 239.113281 95.570312 240.617188 95.679688 242.121094 95.828125 C 243.621094 95.976562 245.117188 96.160156 246.609375 96.382812 C 248.101562 96.601562 249.585938 96.859375 251.066406 97.152344 C 252.546875 97.445312 254.019531 97.777344 255.480469 98.144531 C 256.945312 98.507812 258.398438 98.910156 259.839844 99.347656 C 261.285156 99.785156 262.71875 100.257812 264.136719 100.761719 C 265.558594 101.269531 266.964844 101.8125 268.359375 102.386719 C 269.753906 102.964844 271.128906 103.574219 272.496094 104.21875 C 273.859375 104.863281 275.203125 105.539062 276.535156 106.246094 C 277.867188 106.957031 279.179688 107.699219 280.472656 108.472656 C 281.765625 109.246094 283.039062 110.050781 284.292969 110.890625 C 285.546875 111.726562 286.78125 112.589844 287.992188 113.488281 C 289.203125 114.386719 290.394531 115.3125 291.558594 116.265625 C 292.726562 117.222656 293.867188 118.203125 294.984375 119.214844 C 296.101562 120.226562 297.195312 121.265625 298.261719 122.328125 C 299.328125 123.394531 300.367188 124.484375 301.382812 125.597656 C 302.394531 126.714844 303.378906 127.855469 304.335938 129.015625 C 305.292969 130.179688 306.222656 131.367188 307.121094 132.578125 C 308.019531 133.785156 308.886719 135.015625 309.726562 136.269531 C 310.5625 137.519531 311.371094 138.792969 312.144531 140.082031 C 312.921875 141.375 313.664062 142.683594 314.375 144.011719 C 315.085938 145.339844 315.765625 146.683594 316.410156 148.042969 C 317.054688 149.40625 317.664062 150.78125 318.242188 152.171875 C 318.820312 153.5625 319.363281 154.96875 319.871094 156.382812 C 320.378906 157.800781 320.851562 159.230469 321.289062 160.671875 C 321.726562 162.113281 322.128906 163.5625 322.496094 165.023438 C 322.863281 166.484375 323.195312 167.953125 323.488281 169.429688 C 323.78125 170.90625 324.039062 172.386719 324.261719 173.878906 C 324.484375 175.367188 324.667969 176.859375 324.816406 178.359375 C 324.960938 179.855469 325.074219 181.355469 325.148438 182.859375 C 325.222656 184.363281 325.257812 185.867188 325.257812 187.375 Z M 325.257812 187.375"/></g><g clip-path="url(#c)"><path fill="#3AB896" d="M 234.269531 187.375 C 234.269531 188.878906 234.230469 190.382812 234.15625 191.886719 C 234.082031 193.390625 233.972656 194.894531 233.824219 196.390625 C 233.675781 197.890625 233.492188 199.382812 233.269531 200.871094 C 233.050781 202.359375 232.792969 203.84375 232.496094 205.320312 C 232.203125 206.796875 231.871094 208.265625 231.507812 209.726562 C 231.140625 211.1875 230.738281 212.636719 230.300781 214.078125 C 229.863281 215.519531 229.390625 216.945312 228.878906 218.363281 C 228.371094 219.78125 227.828125 221.1875 227.253906 222.578125 C 226.675781 223.96875 226.0625 225.34375 225.417969 226.703125 C 224.773438 228.066406 224.097656 229.410156 223.386719 230.738281 C 222.671875 232.066406 221.929688 233.375 221.15625 234.667969 C 220.378906 235.957031 219.574219 237.230469 218.734375 238.480469 C 217.898438 239.730469 217.027344 240.960938 216.128906 242.171875 C 215.230469 243.382812 214.304688 244.566406 213.347656 245.730469 C 212.390625 246.894531 211.402344 248.035156 210.390625 249.148438 C 209.378906 250.265625 208.339844 251.355469 207.273438 252.421875 C 206.203125 253.484375 205.113281 254.523438 203.996094 255.535156 C 202.878906 256.542969 201.734375 257.527344 200.570312 258.484375 C 199.402344 259.4375 198.214844 260.363281 197.003906 261.261719 C 195.792969 262.15625 194.558594 263.023438 193.304688 263.859375 C 192.050781 264.695312 190.777344 265.5 189.480469 266.277344 C 188.1875 267.050781 186.875 267.792969 185.546875 268.5 C 184.214844 269.210938 182.867188 269.886719 181.503906 270.53125 C 180.140625 271.175781 178.761719 271.785156 177.367188 272.359375 C 175.972656 272.9375 174.566406 273.480469 173.148438 273.984375 C 171.726562 274.492188 170.296875 274.964844 168.851562 275.402344 C 167.40625 275.839844 165.953125 276.242188 164.492188 276.605469 C 163.027344 276.972656 161.554688 277.300781 160.078125 277.59375 C 158.597656 277.890625 157.113281 278.148438 155.621094 278.367188 C 154.128906 278.589844 152.628906 278.773438 151.128906 278.921875 C 149.628906 279.066406 148.125 279.179688 146.617188 279.253906 C 145.109375 279.328125 143.601562 279.363281 142.09375 279.363281 C 140.585938 279.363281 139.078125 279.328125 137.570312 279.253906 C 136.066406 279.179688 134.5625 279.066406 133.058594 278.921875 C 131.558594 278.773438 130.0625 278.589844 128.570312 278.367188 C 127.078125 278.148438 125.59375 277.890625 124.113281 277.59375 C 122.632812 277.300781 121.160156 276.972656 119.699219 276.605469 C 118.234375 276.242188 116.78125 275.839844 115.339844 275.402344 C 113.894531 274.964844 112.460938 274.492188 111.042969 273.984375 C 109.621094 273.480469 108.214844 272.9375 106.820312 272.359375 C 105.425781 271.785156 104.050781 271.175781 102.683594 270.53125 C 101.320312 269.886719 99.976562 269.210938 98.644531 268.5 C 97.3125 267.792969 96 267.050781 94.707031 266.277344 C 93.414062 265.5 92.140625 264.695312 90.886719 263.859375 C 89.632812 263.023438 88.398438 262.15625 87.1875 261.261719 C 85.976562 260.363281 84.785156 259.4375 83.621094 258.484375 C 82.453125 257.527344 81.3125 256.542969 80.195312 255.535156 C 79.078125 254.523438 77.984375 253.484375 76.917969 252.421875 C 75.851562 251.355469 74.8125 250.265625 73.796875 249.148438 C 72.785156 248.035156 71.800781 246.894531 70.84375 245.730469 C 69.886719 244.566406 68.957031 243.382812 68.058594 242.171875 C 67.160156 240.960938 66.292969 239.730469 65.453125 238.480469 C 64.617188 237.230469 63.808594 235.957031 63.035156 234.667969 C 62.257812 233.375 61.515625 232.066406 60.804688 230.738281 C 60.09375 229.410156 59.414062 228.066406 58.769531 226.703125 C 58.125 225.34375 57.515625 223.96875 56.9375 222.578125 C 56.359375 221.1875 55.816406 219.78125 55.308594 218.363281 C 54.800781 216.945312 54.328125 215.519531 53.890625 214.078125 C 53.453125 212.636719 53.050781 211.1875 52.683594 209.726562 C 52.316406 208.265625 51.984375 206.796875 51.691406 205.320312 C 51.398438 203.84375 51.140625 202.359375 50.917969 200.871094 C 50.695312 199.382812 50.511719 197.890625 50.363281 196.390625 C 50.21875 194.894531 50.105469 193.390625 50.03125 191.886719 C 49.957031 190.382812 49.921875 188.878906 49.921875 187.375 C 49.921875 185.867188 49.957031 184.363281 50.03125 182.859375 C 50.105469 181.355469 50.21875 179.855469 50.363281 178.359375 C 50.511719 176.859375 50.695312 175.367188 50.917969 173.878906 C 51.140625 172.386719 51.398438 170.90625 51.691406 169.429688 C 51.984375 167.953125 52.316406 166.484375 52.683594 165.023438 C 53.050781 163.5625 53.453125 162.113281 53.890625 160.671875 C 54.328125 159.230469 54.800781 157.800781 55.308594 156.382812 C 55.816406 154.96875 56.359375 153.5625 56.9375 152.171875 C 57.515625 150.78125 58.125 149.40625 58.769531 148.042969 C 59.414062 146.683594 60.09375 145.339844 60.804688 144.011719 C 61.515625 142.683594 62.257812 141.375 63.035156 140.082031 C 63.808594 138.792969 64.617188 137.519531 65.453125 136.269531 C 66.292969 135.015625 67.160156 133.785156 68.058594 132.578125 C 68.957031 131.367188 69.886719 130.179688 70.84375 129.015625 C 71.800781 127.855469 72.785156 126.714844 73.796875 125.597656 C 74.8125 124.484375 75.851562 123.394531 76.917969 122.328125 C 77.984375 121.265625 79.078125 120.226562 80.195312 119.214844 C 81.3125 118.203125 82.453125 117.222656 83.621094 116.265625 C 84.785156 115.3125 85.976562 114.386719 87.1875 113.488281 C 88.398438 112.589844 89.632812 111.726562 90.886719 110.890625 C 92.140625 110.050781 93.414062 109.246094 94.707031 108.472656 C 96 107.699219 97.3125 106.957031 98.644531 106.246094 C 99.976562 105.539062 101.320312 104.863281 102.683594 104.21875 C 104.050781 103.574219 105.425781 102.964844 106.820312 102.386719 C 108.214844 101.8125 109.621094 101.269531 111.042969 100.761719 C 112.460938 100.257812 113.894531 99.785156 115.339844 99.347656 C 116.78125 98.910156 118.234375 98.507812 119.699219 98.144531 C 121.160156 97.777344 122.632812 97.445312 124.113281 97.152344 C 125.59375 96.859375 127.078125 96.601562 128.570312 96.382812 C 130.0625 96.160156 131.558594 95.976562 133.058594 95.828125 C 134.5625 95.679688 136.066406 95.570312 137.570312 95.496094 C 139.078125 95.421875 140.585938 95.386719 142.09375 95.386719 C 143.601562 95.386719 145.109375 95.421875 146.617188 95.496094 C 148.125 95.570312 149.628906 95.679688 151.128906 95.828125 C 152.628906 95.976562 154.128906 96.160156 155.621094 96.382812 C 157.113281 96.601562 158.597656 96.859375 160.078125 97.152344 C 161.554688 97.445312 163.027344 97.777344 164.492188 98.144531 C 165.953125 98.507812 167.40625 98.910156 168.851562 99.347656 C 170.296875 99.785156 171.726562 100.257812 173.148438 100.761719 C 174.566406 101.269531 175.972656 101.8125 177.367188 102.386719 C 178.761719 102.964844 180.140625 103.574219 181.503906 104.21875 C 182.867188 104.863281 184.214844 105.539062 185.546875 106.246094 C 186.875 106.957031 188.1875 107.699219 189.480469 108.472656 C 190.777344 109.246094 192.050781 110.050781 193.304688 110.890625 C 194.558594 111.726562 195.792969 112.589844 197.003906 113.488281 C 198.214844 114.386719 199.402344 115.3125 200.570312 116.265625 C 201.734375 117.222656 202.878906 118.203125 203.996094 119.214844 C 205.113281 120.226562 206.203125 121.265625 207.273438 122.328125 C 208.339844 123.394531 209.378906 124.484375 210.390625 125.597656 C 211.402344 126.714844 212.390625 127.855469 213.347656 129.015625 C 214.304688 130.179688 215.230469 131.367188 216.128906 132.578125 C 217.027344 133.785156 217.898438 135.015625 218.734375 136.269531 C 219.574219 137.519531 220.378906 138.792969 221.15625 140.082031 C 221.929688 141.375 222.675781 142.683594 223.386719 144.011719 C 224.097656 145.339844 224.773438 146.683594 225.417969 148.042969 C 226.0625 149.40625 226.675781 150.78125 227.253906 152.171875 C 227.828125 153.5625 228.371094 154.96875 228.878906 156.382812 C 229.390625 157.800781 229.863281 159.230469 230.300781 160.671875 C 230.738281 162.113281 231.140625 163.5625 231.507812 165.023438 C 231.871094 166.484375 232.203125 167.953125 232.496094 169.429688 C 232.792969 170.90625 233.050781 172.386719 233.269531 173.878906 C 233.492188 175.367188 233.675781 176.859375 233.824219 178.359375 C 233.972656 179.855469 234.082031 181.355469 234.15625 182.859375 C 234.230469 184.363281 234.269531 185.867188 234.269531 187.375 Z M 234.269531 187.375"/></g><g mask="url(#d)"><g><g clip-path="url(#e)" transform="translate(140 107)"><g clip-path="url(#f)"><path fill="#533192" d="M 94.269531 80.375 C 94.269531 46.082031 75.464844 16.179688 47.589844 0.359375 C 19.714844 16.175781 0.910156 46.082031 0.910156 80.375 C 0.910156 114.664062 19.714844 144.570312 47.589844 160.390625 C 75.464844 144.570312 94.269531 114.664062 94.269531 80.375 Z M 94.269531 80.375"/></g></g></g></g></svg>